<svg data-v-fde0c5aa="" xmlns="http://www.w3.org/2000/svg" viewBox="0 0 300 300" class="iconLeft"><!----><defs data-v-fde0c5aa=""><!----></defs><rect data-v-fde0c5aa="" fill="#161C60" x="0" y="0" width="300px" height="300px" class="logo-background-square"></rect><defs data-v-fde0c5aa=""><!----></defs><g data-v-fde0c5aa="" id="421cf418-91a9-4b03-bce8-c680ed2d1dc5" fill="#25BDD6" transform="matrix(1.7301067710741846,0,0,1.7301067710741846,89.34227493207017,125.11241452708703)"><path d="M8.75 8.85Q8.96 9.28 8.96 9.93L8.96 9.93Q8.96 10.65 8.48 11.07Q7.99 11.49 7.14 11.49L7.14 11.49Q6.64 11.49 5.95 11.40L5.95 11.40Q5.74 12.57 5.73 12.64L5.73 12.64Q5.40 14.42 5.24 15.49Q5.07 16.56 5.07 16.97L5.07 16.97Q5.07 18.10 5.46 18.66L5.46 18.66Q4.72 19.19 3.98 19.19L3.98 19.19Q3.21 19.19 2.88 18.77Q2.55 18.35 2.55 17.44L2.55 17.44Q2.55 16.77 2.76 15.36Q2.97 13.94 3.47 11.00L3.47 11.00L3.11 10.99L0.92 11.47Q0.73 11.00 0.73 10.39L0.73 10.39Q0.73 9.62 1.21 9.22Q1.69 8.82 2.55 8.82L2.55 8.82Q3.01 8.82 3.45 8.88Q3.89 8.95 4.59 9.07L4.59 9.07Q5.08 9.16 5.61 9.23Q6.13 9.31 6.58 9.32L6.58 9.32L8.75 8.85ZM12.03 9.49Q11.45 9.49 11.09 9.22Q10.74 8.95 10.74 8.47L10.74 8.47Q10.74 7.88 11.24 7.51Q11.75 7.14 12.38 7.14L12.38 7.14Q12.95 7.14 13.31 7.41Q13.66 7.69 13.66 8.15L13.66 8.15Q13.66 8.74 13.18 9.11Q12.70 9.49 12.03 9.49L12.03 9.49ZM11.02 19.18Q10.30 19.18 9.97 18.82Q9.65 18.47 9.65 17.74L9.65 17.74Q9.65 17.18 9.90 15.83Q10.16 14.48 10.65 12.29L10.65 12.29L9.94 11.30Q10.47 10.91 11.09 10.67Q11.70 10.43 12.24 10.43L12.24 10.43Q12.75 10.43 12.97 10.65Q13.19 10.86 13.19 11.37L13.19 11.37Q13.19 11.56 12.87 12.92L12.87 12.92Q12.50 14.43 12.28 15.58Q12.05 16.72 12.05 17.54L12.05 17.54Q12.05 18.33 12.42 18.61L12.42 18.61Q11.76 19.18 11.02 19.18L11.02 19.18ZM18.42 19.18Q16.72 19.18 15.74 18.24Q14.77 17.30 14.77 15.64L14.77 15.64Q14.77 14.15 15.46 12.96Q16.14 11.77 17.34 11.10Q18.54 10.43 20.02 10.43L20.02 10.43Q21.10 10.43 21.73 10.82Q22.37 11.20 22.37 11.84L22.37 11.84Q22.37 12.38 21.99 12.73Q21.62 13.08 21.03 13.08L21.03 13.08Q20.47 13.08 20.00 12.78Q19.53 12.47 19.25 11.90L19.25 11.90Q18.65 12.14 18.16 12.70Q17.68 13.26 17.41 14.04Q17.14 14.83 17.14 15.68L17.14 15.68Q17.14 16.76 17.51 17.35Q17.88 17.93 18.55 17.93L18.55 17.93Q19.33 17.93 19.89 17.31Q20.44 16.69 20.48 15.79L20.48 15.79Q21.21 15.79 21.59 16.06Q21.98 16.32 21.98 16.86L21.98 16.86Q21.98 17.49 21.50 18.02Q21.03 18.55 20.21 18.87Q19.39 19.18 18.42 19.18L18.42 19.18ZM30.56 16.17Q30.90 16.84 31.34 17.31Q31.78 17.78 32.48 18.06L32.48 18.06Q31.79 19.18 30.66 19.18L30.66 19.18Q30.00 19.18 29.53 18.77Q29.06 18.35 28.53 17.36L28.53 17.36L27.62 15.69L26.36 16.39Q26.33 17.04 26.33 17.35L26.33 17.35Q26.33 17.84 26.43 18.12Q26.52 18.40 26.71 18.61L26.71 18.61Q26.40 18.89 26.01 19.03Q25.62 19.18 25.24 19.18L25.24 19.18Q24.57 19.18 24.26 18.77Q23.94 18.37 23.94 17.51L23.94 17.51Q23.94 16.84 24.28 14.74Q24.63 12.64 25.13 9.80L25.13 9.80L24.40 8.83Q24.91 8.46 25.52 8.22Q26.12 7.98 26.63 7.98L26.63 7.98Q27.17 7.98 27.41 8.19Q27.65 8.40 27.65 8.89L27.65 8.89Q27.65 9.21 27.55 9.73Q27.45 10.25 27.22 11.30L27.22 11.30Q26.68 13.61 26.49 15.08L26.49 15.08L27.30 14.43Q28.49 13.45 29.06 12.79Q29.62 12.12 29.62 11.42L29.62 11.42Q29.62 11.14 29.51 10.84L29.51 10.84Q30.23 10.43 30.94 10.43L30.94 10.43Q31.49 10.43 31.82 10.75Q32.16 11.07 32.16 11.62L32.16 11.62Q32.16 12.35 31.56 13.06Q30.97 13.76 29.67 14.55L29.67 14.55L30.56 16.17ZM41.24 12.45Q41.24 13.41 40.59 14.11Q39.93 14.81 38.68 15.19Q37.44 15.57 35.71 15.58L35.71 15.58L35.71 15.76Q35.71 16.79 36.08 17.36Q36.44 17.93 37.09 17.93L37.09 17.93Q37.87 17.93 38.37 17.39Q38.88 16.84 38.92 15.95L38.92 15.95Q39.65 15.95 40.03 16.22Q40.42 16.49 40.42 17.01L40.42 17.01Q40.42 17.60 39.94 18.10Q39.47 18.59 38.65 18.89Q37.83 19.18 36.83 19.18L36.83 19.18Q35.20 19.18 34.27 18.26Q33.35 17.33 33.35 15.71L33.35 15.71Q33.35 14.21 34.04 13.01Q34.73 11.80 35.95 11.12Q37.17 10.43 38.68 10.43L38.68 10.43Q39.90 10.43 40.57 10.96Q41.24 11.49 41.24 12.45L41.24 12.45ZM38.30 11.77Q37.46 11.77 36.77 12.59Q36.08 13.40 35.83 14.63L35.83 14.63Q37.42 14.56 38.30 14.04Q39.17 13.51 39.17 12.61L39.17 12.61Q39.17 12.24 38.93 12.01Q38.70 11.77 38.30 11.77L38.30 11.77ZM47.66 11.17Q48.13 11.17 48.31 11.32Q48.50 11.47 48.50 11.84L48.50 11.84Q48.50 12.19 48.27 12.68L48.27 12.68Q47.73 12.52 46.98 12.52L46.98 12.52L46.69 12.52Q46.31 13.82 46.07 14.99Q45.82 16.17 45.81 17.35L45.81 17.35L46.47 18.45Q46.07 18.80 45.62 18.99Q45.16 19.18 44.74 19.18L44.74 19.18Q44.11 19.18 43.75 18.85Q43.39 18.52 43.39 17.63L43.39 17.63Q43.39 16.95 43.56 16.09Q43.74 15.22 44.06 13.96L44.06 13.96L44.34 12.78Q43.97 12.81 43.79 12.81L43.79 12.81Q43.32 12.81 43.13 12.66Q42.95 12.52 42.95 12.15L42.95 12.15Q42.95 11.75 43.18 11.30L43.18 11.30Q43.69 11.47 44.48 11.47L44.48 11.47L44.56 11.47L44.56 11.38Q44.56 10.64 44.30 9.90L44.30 9.90Q44.70 9.52 45.26 9.29Q45.81 9.06 46.37 9.06L46.37 9.06Q46.89 9.06 47.10 9.28Q47.32 9.51 47.32 10.02L47.32 10.02Q47.32 10.35 47.08 11.20L47.08 11.20Q47.47 11.17 47.66 11.17L47.66 11.17ZM56.41 10.43Q57.51 10.43 57.51 11.51L57.51 11.51Q57.51 13.41 56.49 15.81Q55.47 18.21 53.63 19.92Q51.79 21.63 49.45 21.63L49.45 21.63Q48.38 21.63 47.83 21.25Q47.28 20.87 47.28 20.19L47.28 20.19Q47.28 19.87 47.44 19.55Q47.60 19.24 47.81 19.05L47.81 19.05Q48.37 19.89 49.60 19.89L49.60 19.89Q50.06 19.89 50.62 19.70Q51.18 19.50 51.74 19.12L51.74 19.12Q50.83 18.96 50.41 18.31Q49.98 17.67 49.87 16.84Q49.76 16.00 49.74 14.63L49.74 14.63Q49.73 13.15 49.58 12.28Q49.43 11.41 48.92 10.93L48.92 10.93Q49.57 10.43 50.32 10.43L50.32 10.43Q51.09 10.43 51.48 10.91Q51.87 11.40 51.98 12.14Q52.09 12.88 52.09 14.00L52.09 14.00L52.09 14.99Q52.09 16.27 52.26 17.02Q52.42 17.78 52.93 18.09L52.93 18.09Q53.93 17.00 54.53 15.40Q55.13 13.80 55.13 11.73L55.13 11.73Q55.13 11.26 55.08 10.93L55.08 10.93Q55.38 10.70 55.73 10.56Q56.08 10.43 56.41 10.43L56.41 10.43ZM70.95 8.85Q71.16 9.28 71.16 9.93L71.16 9.93Q71.16 10.65 70.68 11.07Q70.20 11.49 69.34 11.49L69.34 11.49Q68.84 11.49 68.15 11.40L68.15 11.40Q67.94 12.57 67.93 12.64L67.93 12.64Q67.61 14.42 67.44 15.49Q67.27 16.56 67.27 16.97L67.27 16.97Q67.27 18.10 67.66 18.66L67.66 18.66Q66.92 19.19 66.18 19.19L66.18 19.19Q65.41 19.19 65.08 18.77Q64.75 18.35 64.75 17.44L64.75 17.44Q64.75 16.77 64.96 15.36Q65.17 13.94 65.67 11.00L65.67 11.00L65.31 10.99L63.13 11.47Q62.93 11.00 62.93 10.39L62.93 10.39Q62.93 9.62 63.41 9.22Q63.90 8.82 64.75 8.82L64.75 8.82Q65.21 8.82 65.65 8.88Q66.09 8.95 66.79 9.07L66.79 9.07Q67.28 9.16 67.81 9.23Q68.33 9.31 68.78 9.32L68.78 9.32L70.95 8.85ZM74.51 19.18Q73.40 19.18 72.58 18.73Q71.75 18.27 71.30 17.44Q70.85 16.60 70.85 15.50L70.85 15.50Q70.85 14.03 71.51 12.87Q72.17 11.72 73.35 11.07Q74.52 10.43 76.01 10.43L76.01 10.43Q76.54 10.43 77.04 10.54L77.04 10.54Q77.20 10.98 77.18 11.51L77.18 11.51Q75.96 11.51 75.07 12.04Q74.17 12.57 73.70 13.49Q73.22 14.41 73.22 15.55L73.22 15.55Q73.22 16.74 73.65 17.34Q74.07 17.93 74.84 17.93L74.84 17.93Q75.82 17.93 76.48 17.14Q77.14 16.35 77.29 14.99L77.29 14.99Q76.22 14.36 76.22 13.19L76.22 13.19Q76.22 12.46 76.66 11.96Q77.10 11.47 77.74 11.47L77.74 11.47Q78.50 11.47 78.95 12.08Q79.41 12.70 79.41 13.73L79.41 13.73Q79.41 15.23 78.76 16.49Q78.11 17.74 76.98 18.46Q75.85 19.18 74.51 19.18L74.51 19.18ZM84.59 19.18Q82.88 19.18 81.91 18.24Q80.93 17.30 80.93 15.64L80.93 15.64Q80.93 14.15 81.62 12.96Q82.31 11.77 83.50 11.10Q84.70 10.43 86.18 10.43L86.18 10.43Q87.26 10.43 87.90 10.82Q88.54 11.20 88.54 11.84L88.54 11.84Q88.54 12.38 88.16 12.73Q87.78 13.08 87.19 13.08L87.19 13.08Q86.63 13.08 86.16 12.78Q85.69 12.47 85.41 11.90L85.41 11.90Q84.81 12.14 84.33 12.70Q83.85 13.26 83.57 14.04Q83.30 14.83 83.30 15.68L83.30 15.68Q83.30 16.76 83.67 17.35Q84.04 17.93 84.71 17.93L84.71 17.93Q85.50 17.93 86.05 17.31Q86.60 16.69 86.65 15.79L86.65 15.79Q87.37 15.79 87.76 16.06Q88.14 16.32 88.14 16.86L88.14 16.86Q88.14 17.49 87.67 18.02Q87.19 18.55 86.37 18.87Q85.55 19.18 84.59 19.18L84.59 19.18ZM96.73 16.17Q97.06 16.84 97.50 17.31Q97.94 17.78 98.64 18.06L98.64 18.06Q97.96 19.18 96.82 19.18L96.82 19.18Q96.17 19.18 95.70 18.77Q95.23 18.35 94.70 17.36L94.70 17.36L93.79 15.69L92.53 16.39Q92.50 17.04 92.50 17.35L92.50 17.35Q92.50 17.84 92.59 18.12Q92.68 18.40 92.88 18.61L92.88 18.61Q92.57 18.89 92.18 19.03Q91.78 19.18 91.41 19.18L91.41 19.18Q90.73 19.18 90.42 18.77Q90.10 18.37 90.10 17.51L90.10 17.51Q90.10 16.84 90.45 14.74Q90.79 12.64 91.29 9.80L91.29 9.80L90.57 8.83Q91.07 8.46 91.68 8.22Q92.29 7.98 92.79 7.98L92.79 7.98Q93.34 7.98 93.58 8.19Q93.81 8.40 93.81 8.89L93.81 8.89Q93.81 9.21 93.72 9.73Q93.62 10.25 93.38 11.30L93.38 11.30Q92.85 13.61 92.65 15.08L92.65 15.08L93.46 14.43Q94.65 13.45 95.22 12.79Q95.79 12.12 95.79 11.42L95.79 11.42Q95.79 11.14 95.68 10.84L95.68 10.84Q96.39 10.43 97.10 10.43L97.10 10.43Q97.65 10.43 97.99 10.75Q98.32 11.07 98.32 11.62L98.32 11.62Q98.32 12.35 97.73 13.06Q97.13 13.76 95.83 14.55L95.83 14.55L96.73 16.17Z"></path></g><defs data-v-fde0c5aa=""><!----></defs><g data-v-fde0c5aa="" id="76e35437-6c55-4043-b571-f21b86f084bd" stroke="none" fill="#25BDD6" transform="matrix(0.37603867206364994,0,0,0.37603867206364994,40.00069978878246,131.19806528737135)"><path d="M78.984 71.209a1 1 0 00-1.414 0l-6.361 6.362a1.003 1.003 0 000 1.414l2.12 2.12c.194.194.45.292.707.292s.513-.098.707-.292l6.362-6.362a1.003 1.003 0 000-1.414l-2.121-2.12zm-4.948 7.775l-.706-.706 4.947-4.948.707.706-4.948 4.948zM57.525 25.776l-1.932-.518-1.811 6.76 1.932.518 1.811-6.76zM46.218 32.02l-1.812-6.761-1.932.518 1.812 6.761 1.932-.518zm22.41.765l-1.414-1.414-4.948 4.948 1.414 1.414 4.948-4.948zM35.507 84.994l-20.5-20.502a2.992 2.992 0 00-2.122-.874c-.769 0-1.537.291-2.12.874L.868 74.39a2.998 2.998 0 00-.586 3.385.637.637 0 00.076.219c2.222 3.769 5.505 7.972 9.568 12.036 4.079 4.078 8.298 7.37 12.078 9.594.038.022.075.025.112.039.435.224.914.337 1.393.337.762 0 1.522-.287 2.102-.866l9.897-9.898a3.008 3.008 0 00-.001-4.242zm-1.414 2.827l-9.897 9.898a.963.963 0 01-.687.281c-.166 0-.331-.04-.477-.115l-.11-.057-.068-.025c-3.754-2.231-7.732-5.405-11.515-9.188-3.753-3.754-6.906-7.699-9.13-11.42l-.005-.028-.108-.234c-.149-.32-.149-.794.186-1.129l9.896-9.897a.993.993 0 01.706-.288c.157 0 .457.037.708.288L34.093 86.41c.251.251.289.55.289.705a.988.988 0 01-.289.706zm3.642-51.502l-4.949-4.948-1.414 1.414 4.949 4.948 1.414-1.414zm61.984-14.094a.661.661 0 00-.076-.218c-2.222-3.769-5.505-7.973-9.568-12.036-4.078-4.078-8.297-7.37-12.077-9.595-.037-.021-.075-.024-.112-.039A3.042 3.042 0 0076.492 0c-.762 0-1.523.286-2.103.865l-9.897 9.897a3.01 3.01 0 000 4.243l20.502 20.501c.582.583 1.352.875 2.12.875s1.538-.292 2.121-.875l9.897-9.897a3 3 0 00.587-3.384zm-2 1.97l-9.896 9.896a.998.998 0 01-.708.29.997.997 0 01-.706-.289l-20.503-20.5a1.015 1.015 0 010-1.415l9.897-9.896A.968.968 0 0176.492 2c.166 0 .33.039.476.114l.089.046.086.034c3.756 2.233 7.734 5.408 11.518 9.19 3.75 3.751 6.902 7.694 9.129 11.417l.005.027.11.237c.148.322.148.795-.186 1.13zm-29.74 22.022l6.761-1.811-.518-1.932-6.761 1.811.518 1.932zm-.518 9.497l6.761 1.811.518-1.932-6.761-1.811-.518 1.932zM32.539 44.286l-6.76-1.811-.518 1.932 6.76 1.811.518-1.932zm17.462-24.28c-7.676 0-15.353 2.929-21.209 8.784-11.713 11.714-11.712 30.705 0 42.418 5.857 5.857 13.533 8.785 21.209 8.785 7.675 0 15.352-2.929 21.208-8.784 11.713-11.714 11.713-30.705 0-42.419-5.855-5.856-13.531-8.784-21.208-8.784zm19.794 49.789c-5.287 5.287-12.316 8.198-19.794 8.198-7.477 0-14.507-2.912-19.795-8.199-10.914-10.915-10.914-28.675 0-39.59 5.287-5.287 12.317-8.198 19.795-8.198 7.477 0 14.506 2.911 19.793 8.198 10.915 10.915 10.915 28.676.001 39.591zm20.589-34.73l-7.27 7.271a33.827 33.827 0 00-9.077-16.374 33.832 33.832 0 00-16.373-9.077l7.271-7.271-2.21-2.209c-.075-.075-.245-.108-.483-.108-1.576 0-6.145 1.434-6.145 1.434s-5.328 4.139-8.91 7.4c-7.74.639-15.303 3.91-21.224 9.832a33.851 33.851 0 00-9.832 21.224c-3.262 3.582-7.399 8.91-7.399 8.91s-1.899 6.054-1.326 6.628l2.209 2.21 7.271-7.271a33.826 33.826 0 009.078 16.373 33.817 33.817 0 0016.372 9.077l-7.271 7.272s1.635 1.635 2.21 2.208c.075.075.246.108.484.108 1.577 0 6.143-1.433 6.143-1.433s5.328-4.139 8.911-7.401a33.849 33.849 0 0021.223-9.832 33.858 33.858 0 009.833-21.224c3.262-3.581 7.398-8.909 7.398-8.909s1.9-6.054 1.326-6.629l-2.209-2.209zM9.616 62.106l-.284-.284c.138-.985.667-3.034 1.202-4.783.729-.931 3.135-3.978 5.482-6.702.017 1.658.154 3.314.412 4.957l-6.812 6.812zM57.04 10.532c1.718-.525 3.769-1.058 4.785-1.199l.28.281-6.811 6.813a34.067 34.067 0 00-4.957-.412c2.726-2.347 5.772-4.753 6.703-5.483zM42.96 89.468c-1.714.524-3.76 1.055-4.785 1.197l-.28-.28 6.812-6.813c1.642.258 3.298.396 4.956.412-2.726 2.348-5.772 4.754-6.703 5.484zm38.804-35.839c-.787 6.944-3.828 13.679-9.142 18.993-5.167 5.168-11.792 8.341-18.946 9.154l-.016-.016c-1.225.14-2.455.21-3.686.21-1.99 0-3.979-.184-5.941-.554l-.014.014c-6.266-1.179-12.033-4.202-16.64-8.809a31.812 31.812 0 01-9.129-18.879l-.033-.277a31.858 31.858 0 01-.165-2.267l-.002-.103c-.052-1.578.01-3.16.188-4.731.787-6.942 3.828-13.676 9.14-18.988 5.167-5.166 11.792-8.341 18.946-9.154l.016.016c1.225-.14 2.457-.21 3.689-.21 1.989 0 3.978.183 5.94.553l.014-.014c6.266 1.179 12.033 4.201 16.641 8.809a31.819 31.819 0 019.127 18.875c.011.095.023.189.033.284.081.753.138 1.508.165 2.263.001.036.001.072.003.107a32.7 32.7 0 01-.188 4.724zm7.703-10.668c-.73.931-3.135 3.977-5.482 6.701a34.207 34.207 0 00-.412-4.957l6.812-6.812.284.284c-.139.986-.667 3.035-1.202 4.784zm-35.69 4.352l-3.124 1.339-3.31-9.926-1.897.633 3.361 10.084-14.825 6.354.788 1.838 14.671-6.288.953 2.857 1.898-.633-.855-2.565 24.609.101.008-2-21.547-.088-.73-1.706zM31.372 67.215l1.414 1.414 4.949-4.95-1.414-1.414-4.949 4.95zm.649-13.433l-6.76 1.811.518 1.932 6.76-1.811-.518-1.932zm30.245 9.897l4.948 4.95 1.414-1.414-4.948-4.95-1.414 1.414zM42.475 74.222l1.932.518 1.812-6.76-1.932-.518-1.812 6.76zm11.307-6.243l1.812 6.76 1.932-.518-1.812-6.76-1.932.518z"></path></g><!----></svg>